<?xml version="1.0" encoding="UTF-8" standalone="no"?>
<!DOCTYPE svg PUBLIC "-//W3C//DTD SVG 1.1//EN"
 "http://www.w3.org/Graphics/SVG/1.1/DTD/svg11.dtd">
<!-- Generated by graphviz version 2.40.1 (20161225.0304)
 -->
<!-- Title: G Pages: 1 -->
<svg width="386pt" height="1309pt"
 viewBox="0.00 0.00 385.84 1309.00" xmlns="http://www.w3.org/2000/svg" xmlns:xlink="http://www.w3.org/1999/xlink">
<g id="graph0" class="graph" transform="scale(1 1) rotate(0) translate(4 1305)">
<title>G</title>
<polygon fill="#ffffff" stroke="transparent" points="-4,4 -4,-1305 381.8354,-1305 381.8354,4 -4,4"/>
<g id="clust1" class="cluster">
<title>cluster_Global</title>
<path fill="none" stroke="#c0c0c0" d="M20,-44C20,-44 357.8354,-44 357.8354,-44 363.8354,-44 369.8354,-50 369.8354,-56 369.8354,-56 369.8354,-1281 369.8354,-1281 369.8354,-1287 363.8354,-1293 357.8354,-1293 357.8354,-1293 20,-1293 20,-1293 14,-1293 8,-1287 8,-1281 8,-1281 8,-56 8,-56 8,-50 14,-44 20,-44"/>
<text text-anchor="middle" x="188.9177" y="-1280.2" font-family="Times,serif" font-size="11.00" fill="#c0c0c0">Global</text>
</g>
<g id="clust2" class="cluster">
<title>cluster_\RtmClient</title>
<path fill="none" stroke="#c0c0c0" d="M28,-52C28,-52 349.8354,-52 349.8354,-52 355.8354,-52 361.8354,-58 361.8354,-64 361.8354,-64 361.8354,-1254 361.8354,-1254 361.8354,-1260 355.8354,-1266 349.8354,-1266 349.8354,-1266 28,-1266 28,-1266 22,-1266 16,-1260 16,-1254 16,-1254 16,-64 16,-64 16,-58 22,-52 28,-52"/>
<text text-anchor="middle" x="188.9177" y="-1253.2" font-family="Times,serif" font-size="11.00" fill="#c0c0c0">RtmClient</text>
</g>
<g id="clust3" class="cluster">
<title>cluster_\RtmClient\Auth</title>
<path fill="none" stroke="#c0c0c0" d="M42.0054,-1168C42.0054,-1168 292.3274,-1168 292.3274,-1168 298.3274,-1168 304.3274,-1174 304.3274,-1180 304.3274,-1180 304.3274,-1227 304.3274,-1227 304.3274,-1233 298.3274,-1239 292.3274,-1239 292.3274,-1239 42.0054,-1239 42.0054,-1239 36.0054,-1239 30.0054,-1233 30.0054,-1227 30.0054,-1227 30.0054,-1180 30.0054,-1180 30.0054,-1174 36.0054,-1168 42.0054,-1168"/>
<text text-anchor="middle" x="167.1664" y="-1226.2" font-family="Times,serif" font-size="11.00" fill="#c0c0c0">Auth</text>
</g>
<g id="clust4" class="cluster">
<title>cluster_\RtmClient\Exceptions</title>
<path fill="none" stroke="#c0c0c0" d="M182.0107,-1035C182.0107,-1035 341.8354,-1035 341.8354,-1035 347.8354,-1035 353.8354,-1041 353.8354,-1047 353.8354,-1047 353.8354,-1148 353.8354,-1148 353.8354,-1154 347.8354,-1160 341.8354,-1160 341.8354,-1160 182.0107,-1160 182.0107,-1160 176.0107,-1160 170.0107,-1154 170.0107,-1148 170.0107,-1148 170.0107,-1047 170.0107,-1047 170.0107,-1041 176.0107,-1035 182.0107,-1035"/>
<text text-anchor="middle" x="261.9231" y="-1147.2" font-family="Times,serif" font-size="11.00" fill="#c0c0c0">Exceptions</text>
</g>
<g id="clust5" class="cluster">
<title>cluster_\RtmClient\Logger</title>
<path fill="none" stroke="#c0c0c0" d="M231.5188,-902C231.5188,-902 292.3274,-902 292.3274,-902 298.3274,-902 304.3274,-908 304.3274,-914 304.3274,-914 304.3274,-1015 304.3274,-1015 304.3274,-1021 298.3274,-1027 292.3274,-1027 292.3274,-1027 231.5188,-1027 231.5188,-1027 225.5188,-1027 219.5188,-1021 219.5188,-1015 219.5188,-1015 219.5188,-914 219.5188,-914 219.5188,-908 225.5188,-902 231.5188,-902"/>
<text text-anchor="middle" x="261.9231" y="-1014.2" font-family="Times,serif" font-size="11.00" fill="#c0c0c0">Logger</text>
</g>
<g id="clust6" class="cluster">
<title>cluster_\RtmClient\Pdu</title>
<path fill="none" stroke="#c0c0c0" d="M224.9177,-715C224.9177,-715 298.9285,-715 298.9285,-715 304.9285,-715 310.9285,-721 310.9285,-727 310.9285,-727 310.9285,-882 310.9285,-882 310.9285,-888 304.9285,-894 298.9285,-894 298.9285,-894 224.9177,-894 224.9177,-894 218.9177,-894 212.9177,-888 212.9177,-882 212.9177,-882 212.9177,-727 212.9177,-727 212.9177,-721 218.9177,-715 224.9177,-715"/>
<text text-anchor="middle" x="261.9231" y="-881.2" font-family="Times,serif" font-size="11.00" fill="#c0c0c0">Pdu</text>
</g>
<g id="clust7" class="cluster">
<title>cluster_\RtmClient\Subscription</title>
<path fill="none" stroke="#c0c0c0" d="M218.3167,-582C218.3167,-582 305.5295,-582 305.5295,-582 311.5295,-582 317.5295,-588 317.5295,-594 317.5295,-594 317.5295,-695 317.5295,-695 317.5295,-701 311.5295,-707 305.5295,-707 305.5295,-707 218.3167,-707 218.3167,-707 212.3167,-707 206.3167,-701 206.3167,-695 206.3167,-695 206.3167,-594 206.3167,-594 206.3167,-588 212.3167,-582 218.3167,-582"/>
<text text-anchor="middle" x="261.9231" y="-694.2" font-family="Times,serif" font-size="11.00" fill="#c0c0c0">Subscription</text>
</g>
<g id="clust8" class="cluster">
<title>cluster_\RtmClient\WebSocket</title>
<path fill="none" stroke="#c0c0c0" d="M187.2129,-106C187.2129,-106 336.6333,-106 336.6333,-106 342.6333,-106 348.6333,-112 348.6333,-118 348.6333,-118 348.6333,-462 348.6333,-462 348.6333,-468 342.6333,-474 336.6333,-474 336.6333,-474 187.2129,-474 187.2129,-474 181.2129,-474 175.2129,-468 175.2129,-462 175.2129,-462 175.2129,-118 175.2129,-118 175.2129,-112 181.2129,-106 187.2129,-106"/>
<text text-anchor="middle" x="261.9231" y="-461.2" font-family="Times,serif" font-size="11.00" fill="#c0c0c0">WebSocket</text>
</g>
<g id="clust9" class="cluster">
<title>cluster_\RtmClient\WebSocket\Exceptions</title>
<path fill="none" stroke="#c0c0c0" d="M195.2129,-268C195.2129,-268 328.6333,-268 328.6333,-268 334.6333,-268 340.6333,-274 340.6333,-280 340.6333,-280 340.6333,-435 340.6333,-435 340.6333,-441 334.6333,-447 328.6333,-447 328.6333,-447 195.2129,-447 195.2129,-447 189.2129,-447 183.2129,-441 183.2129,-435 183.2129,-435 183.2129,-280 183.2129,-280 183.2129,-274 189.2129,-268 195.2129,-268"/>
<text text-anchor="middle" x="261.9231" y="-434.2" font-family="Times,serif" font-size="11.00" fill="#c0c0c0">Exceptions</text>
</g>
<!-- \\RtmClient\\Auth\\RoleAuth -->
<g id="node1" class="node">
<title>\\RtmClient\\Auth\\RoleAuth</title>
<polygon fill="none" stroke="#000000" points="296.232,-1212 227.6142,-1212 227.6142,-1176 296.232,-1176 296.232,-1212"/>
<text text-anchor="middle" x="261.9231" y="-1190.7" font-family="Courier,monospace" font-size="11.00" fill="#000000">RoleAuth</text>
</g>
<!-- \\RtmClient\\Auth\\iAuth -->
<g id="node2" class="node">
<title>\\RtmClient\\Auth\\iAuth</title>
<polygon fill="none" stroke="#000000" points="92.0054,-1212 38.0054,-1212 38.0054,-1176 92.0054,-1176 92.0054,-1212"/>
<text text-anchor="middle" x="65.0054" y="-1190.7" font-family="Courier,monospace" font-size="11.00" fill="#000000">iAuth</text>
</g>
<!-- \\RtmClient\\Auth\\RoleAuth&#45;&gt;\\RtmClient\\Auth\\iAuth -->
<g id="edge1" class="edge">
<title>\\RtmClient\\Auth\\RoleAuth&#45;&gt;\\RtmClient\\Auth\\iAuth</title>
<path fill="none" stroke="#000000" stroke-dasharray="1,5" d="M227.1714,-1194C192.0995,-1194 138.1278,-1194 102.2062,-1194"/>
<polygon fill="none" stroke="#000000" points="102.1317,-1190.5001 92.1316,-1194 102.1316,-1197.5001 102.1317,-1190.5001"/>
</g>
<!-- \\RtmClient\\Exceptions\\ApplicationException -->
<g id="node3" class="node">
<title>\\RtmClient\\Exceptions\\ApplicationException</title>
<polygon fill="none" stroke="#000000" points="335.9446,-1133 187.9016,-1133 187.9016,-1097 335.9446,-1097 335.9446,-1133"/>
<text text-anchor="middle" x="261.9231" y="-1111.7" font-family="Courier,monospace" font-size="11.00" fill="#000000">ApplicationException</text>
</g>
<!-- \\Exception -->
<g id="node22" class="node">
<title>\\Exception</title>
<ellipse fill="none" stroke="#000000" cx="65.0054" cy="-18" rx="40.6162" ry="18"/>
<text text-anchor="middle" x="65.0054" y="-13.8" font-family="Times,serif" font-size="14.00" fill="#c0c0c0">xception</text>
</g>
<!-- \\RtmClient\\Exceptions\\ApplicationException&#45;&gt;\\Exception -->
<g id="edge2" class="edge">
<title>\\RtmClient\\Exceptions\\ApplicationException&#45;&gt;\\Exception</title>
<path fill="none" stroke="#000000" d="M187.4772,-1102.376C180.8047,-1098.6843 174.7811,-1093.981 170.0107,-1088 25.6301,-906.9783 217.0848,-251.1678 106.0107,-48 104.1675,-44.6284 101.7641,-41.5356 99.0447,-38.7243"/>
<polygon fill="none" stroke="#000000" points="101.1108,-35.8819 91.2757,-31.942 96.5073,-41.1552 101.1108,-35.8819"/>
</g>
<!-- \\RtmClient\\Exceptions\\AuthenticationException -->
<g id="node4" class="node">
<title>\\RtmClient\\Exceptions\\AuthenticationException</title>
<polygon fill="none" stroke="#000000" points="345.7479,-1079 178.0983,-1079 178.0983,-1043 345.7479,-1043 345.7479,-1079"/>
<text text-anchor="middle" x="261.9231" y="-1057.7" font-family="Courier,monospace" font-size="11.00" fill="#000000">AuthenticationException</text>
</g>
<!-- \\RtmClient\\Exceptions\\AuthenticationException&#45;&gt;\\Exception -->
<g id="edge3" class="edge">
<title>\\RtmClient\\Exceptions\\AuthenticationException&#45;&gt;\\Exception</title>
<path fill="none" stroke="#000000" d="M182.7499,-1042.9042C177.9491,-1039.573 173.6135,-1035.6406 170.0107,-1031 35.7679,-858.0864 211.3619,-239.889 106.0107,-48 104.1615,-44.6317 101.7542,-41.541 99.0324,-38.7311"/>
<polygon fill="none" stroke="#000000" points="101.0965,-35.8871 91.2601,-31.9506 96.4947,-41.162 101.0965,-35.8871"/>
</g>
<!-- \\RtmClient\\Logger\\Logger -->
<g id="node5" class="node">
<title>\\RtmClient\\Logger\\Logger</title>
<polygon fill="none" stroke="#000000" points="289.5309,-1000 234.3153,-1000 234.3153,-964 289.5309,-964 289.5309,-1000"/>
<text text-anchor="middle" x="261.9231" y="-978.7" font-family="Courier,monospace" font-size="11.00" fill="#000000">Logger</text>
</g>
<!-- \\RtmClient\\Logger\\LogLevel -->
<g id="node6" class="node">
<title>\\RtmClient\\Logger\\LogLevel</title>
<polygon fill="none" stroke="#000000" points="296.232,-946 227.6142,-946 227.6142,-910 296.232,-910 296.232,-946"/>
<text text-anchor="middle" x="261.9231" y="-924.7" font-family="Courier,monospace" font-size="11.00" fill="#000000">LogLevel</text>
</g>
<!-- \\RtmClient\\Pdu\\Helper -->
<g id="node7" class="node">
<title>\\RtmClient\\Pdu\\Helper</title>
<polygon fill="none" stroke="#000000" points="289.5309,-867 234.3153,-867 234.3153,-831 289.5309,-831 289.5309,-867"/>
<text text-anchor="middle" x="261.9231" y="-845.7" font-family="Courier,monospace" font-size="11.00" fill="#000000">Helper</text>
</g>
<!-- \\RtmClient\\Pdu\\Pdu -->
<g id="node8" class="node">
<title>\\RtmClient\\Pdu\\Pdu</title>
<polygon fill="none" stroke="#000000" points="288.9231,-813 234.9231,-813 234.9231,-777 288.9231,-777 288.9231,-813"/>
<text text-anchor="middle" x="261.9231" y="-791.7" font-family="Courier,monospace" font-size="11.00" fill="#000000">Pdu</text>
</g>
<!-- \\RtmClient\\Pdu\\ReturnCode -->
<g id="node9" class="node">
<title>\\RtmClient\\Pdu\\ReturnCode</title>
<polygon fill="none" stroke="#000000" points="302.9338,-759 220.9124,-759 220.9124,-723 302.9338,-723 302.9338,-759"/>
<text text-anchor="middle" x="261.9231" y="-737.7" font-family="Courier,monospace" font-size="11.00" fill="#000000">ReturnCode</text>
</g>
<!-- \\RtmClient\\Subscription\\Events -->
<g id="node10" class="node">
<title>\\RtmClient\\Subscription\\Events</title>
<polygon fill="none" stroke="#000000" points="289.5309,-680 234.3153,-680 234.3153,-644 289.5309,-644 289.5309,-680"/>
<text text-anchor="middle" x="261.9231" y="-658.7" font-family="Courier,monospace" font-size="11.00" fill="#000000">Events</text>
</g>
<!-- \\RtmClient\\Subscription\\Subscription -->
<g id="node11" class="node">
<title>\\RtmClient\\Subscription\\Subscription</title>
<polygon fill="none" stroke="#000000" points="309.6362,-626 214.21,-626 214.21,-590 309.6362,-590 309.6362,-626"/>
<text text-anchor="middle" x="261.9231" y="-604.7" font-family="Courier,monospace" font-size="11.00" fill="#000000">Subscription</text>
</g>
<!-- \\RtmClient\\WebSocket\\Exceptions\\BadSchemeException -->
<g id="node12" class="node">
<title>\\RtmClient\\WebSocket\\Exceptions\\BadSchemeException</title>
<polygon fill="none" stroke="#000000" points="329.2426,-312 194.6036,-312 194.6036,-276 329.2426,-276 329.2426,-312"/>
<text text-anchor="middle" x="261.9231" y="-290.7" font-family="Courier,monospace" font-size="11.00" fill="#000000">BadSchemeException</text>
</g>
<!-- \\RtmClient\\WebSocket\\Exceptions\\BadSchemeException&#45;&gt;\\Exception -->
<g id="edge5" class="edge">
<title>\\RtmClient\\WebSocket\\Exceptions\\BadSchemeException&#45;&gt;\\Exception</title>
<path fill="none" stroke="#000000" d="M194.3619,-286.6878C185.3611,-283.3104 176.8842,-278.5817 170.0107,-272 95.2274,-200.391 165.2176,-132.9408 106.0107,-48 103.7488,-44.7549 101.0211,-41.7262 98.0602,-38.9376"/>
<polygon fill="none" stroke="#000000" points="100.275,-36.2273 90.3522,-32.514 95.7936,-41.6048 100.275,-36.2273"/>
</g>
<!-- \\RtmClient\\WebSocket\\Exceptions\\ConnectionException -->
<g id="node13" class="node">
<title>\\RtmClient\\WebSocket\\Exceptions\\ConnectionException</title>
<polygon fill="none" stroke="#000000" points="332.8441,-420 191.0021,-420 191.0021,-384 332.8441,-384 332.8441,-420"/>
<text text-anchor="middle" x="261.9231" y="-398.7" font-family="Courier,monospace" font-size="11.00" fill="#000000">ConnectionException</text>
</g>
<!-- \\RtmClient\\WebSocket\\Exceptions\\ConnectionException&#45;&gt;\\Exception -->
<g id="edge6" class="edge">
<title>\\RtmClient\\WebSocket\\Exceptions\\ConnectionException&#45;&gt;\\Exception</title>
<path fill="none" stroke="#000000" d="M190.946,-390.065C183.0884,-386.3001 175.8369,-381.3913 170.0107,-375 70.2451,-265.5574 185.4536,-172.9788 106.0107,-48 103.9494,-44.7571 101.4022,-41.7492 98.5943,-38.9902"/>
<polygon fill="none" stroke="#000000" points="100.5908,-36.0934 90.7069,-32.2778 96.0541,-41.4243 100.5908,-36.0934"/>
</g>
<!-- \\RtmClient\\WebSocket\\Exceptions\\TimeoutException -->
<g id="node14" class="node">
<title>\\RtmClient\\WebSocket\\Exceptions\\TimeoutException</title>
<polygon fill="none" stroke="#000000" points="322.5409,-366 201.3053,-366 201.3053,-330 322.5409,-330 322.5409,-366"/>
<text text-anchor="middle" x="261.9231" y="-344.7" font-family="Courier,monospace" font-size="11.00" fill="#000000">TimeoutException</text>
</g>
<!-- \\RtmClient\\WebSocket\\Exceptions\\TimeoutException&#45;&gt;\\Exception -->
<g id="edge7" class="edge">
<title>\\RtmClient\\WebSocket\\Exceptions\\TimeoutException&#45;&gt;\\Exception</title>
<path fill="none" stroke="#000000" d="M200.9604,-339.8547C189.4132,-335.8046 178.3543,-329.8195 170.0107,-321 84.3656,-230.4695 174.7984,-151.9188 106.0107,-48 103.8274,-44.7016 101.1507,-41.6382 98.2205,-38.8287"/>
<polygon fill="none" stroke="#000000" points="100.4573,-36.1366 90.5513,-32.3788 95.9518,-41.4939 100.4573,-36.1366"/>
</g>
<!-- \\RtmClient\\WebSocket\\Client -->
<g id="node15" class="node">
<title>\\RtmClient\\WebSocket\\Client</title>
<polygon fill="none" stroke="#000000" points="289.5309,-258 234.3153,-258 234.3153,-222 289.5309,-222 289.5309,-258"/>
<text text-anchor="middle" x="261.9231" y="-236.7" font-family="Courier,monospace" font-size="11.00" fill="#000000">Client</text>
</g>
<!-- \\RtmClient\\WebSocket\\OpCode -->
<g id="node16" class="node">
<title>\\RtmClient\\WebSocket\\OpCode</title>
<polygon fill="none" stroke="#000000" points="289.5309,-204 234.3153,-204 234.3153,-168 289.5309,-168 289.5309,-204"/>
<text text-anchor="middle" x="261.9231" y="-182.7" font-family="Courier,monospace" font-size="11.00" fill="#000000">OpCode</text>
</g>
<!-- \\RtmClient\\WebSocket\\ReturnCode -->
<g id="node17" class="node">
<title>\\RtmClient\\WebSocket\\ReturnCode</title>
<polygon fill="none" stroke="#000000" points="302.9338,-150 220.9124,-150 220.9124,-114 302.9338,-114 302.9338,-150"/>
<text text-anchor="middle" x="261.9231" y="-128.7" font-family="Courier,monospace" font-size="11.00" fill="#000000">ReturnCode</text>
</g>
<!-- \\RtmClient\\Connection -->
<g id="node18" class="node">
<title>\\RtmClient\\Connection</title>
<polygon fill="none" stroke="#000000" points="302.9338,-518 220.9124,-518 220.9124,-482 302.9338,-482 302.9338,-518"/>
<text text-anchor="middle" x="261.9231" y="-496.7" font-family="Courier,monospace" font-size="11.00" fill="#000000">Connection</text>
</g>
<!-- \\RtmClient\\Observable -->
<g id="node19" class="node">
<title>\\RtmClient\\Observable</title>
<polygon fill="none" stroke="#000000" points="106.0161,-572 23.9946,-572 23.9946,-536 106.0161,-536 106.0161,-572"/>
<text text-anchor="start" x="32" y="-556.2" font-family="Courier,monospace" font-size="11.00" fill="#000000">«abstract»</text>
<text text-anchor="start" x="32" y="-545.2" font-family="Courier,monospace" font-size="11.00" fill="#000000">Observable</text>
</g>
<!-- \\RtmClient\\RtmClient -->
<g id="node20" class="node">
<title>\\RtmClient\\RtmClient</title>
<polygon fill="none" stroke="#000000" points="299.8339,-572 224.0123,-572 224.0123,-536 299.8339,-536 299.8339,-572"/>
<text text-anchor="middle" x="261.9231" y="-550.7" font-family="Courier,monospace" font-size="11.00" fill="#000000">RtmClient</text>
</g>
<!-- \\RtmClient\\RtmClient&#45;&gt;\\RtmClient\\Observable -->
<g id="edge4" class="edge">
<title>\\RtmClient\\RtmClient&#45;&gt;\\RtmClient\\Observable</title>
<path fill="none" stroke="#000000" d="M223.9554,-554C193.3676,-554 150.0627,-554 116.3766,-554"/>
<polygon fill="none" stroke="#000000" points="116.2558,-550.5001 106.2558,-554 116.2558,-557.5001 116.2558,-550.5001"/>
</g>
<!-- \\RtmClient\\RtmEvents -->
<g id="node21" class="node">
<title>\\RtmClient\\RtmEvents</title>
<polygon fill="none" stroke="#000000" points="299.8339,-96 224.0123,-96 224.0123,-60 299.8339,-60 299.8339,-96"/>
<text text-anchor="middle" x="261.9231" y="-74.7" font-family="Courier,monospace" font-size="11.00" fill="#000000">RtmEvents</text>
</g>
</g>
</svg>
