<?xml version="1.0" encoding="UTF-8" standalone="no"?>
<!DOCTYPE svg PUBLIC "-//W3C//DTD SVG 1.1//EN"
 "http://www.w3.org/Graphics/SVG/1.1/DTD/svg11.dtd">
<!-- Generated by graphviz version 2.40.1 (20161225.0304)
 -->
<!-- Title: G Pages: 1 -->
<svg width="386pt" height="1317pt"
 viewBox="0.00 0.00 385.84 1317.00" xmlns="http://www.w3.org/2000/svg" xmlns:xlink="http://www.w3.org/1999/xlink">
<g id="graph0" class="graph" transform="scale(1 1) rotate(0) translate(4 1313)">
<title>G</title>
<polygon fill="#ffffff" stroke="transparent" points="-4,4 -4,-1313 381.8354,-1313 381.8354,4 -4,4"/>
<g id="clust1" class="cluster">
<title>cluster_Global</title>
<path fill="none" stroke="#c0c0c0" d="M20,-44C20,-44 357.8354,-44 357.8354,-44 363.8354,-44 369.8354,-50 369.8354,-56 369.8354,-56 369.8354,-1289 369.8354,-1289 369.8354,-1295 363.8354,-1301 357.8354,-1301 357.8354,-1301 20,-1301 20,-1301 14,-1301 8,-1295 8,-1289 8,-1289 8,-56 8,-56 8,-50 14,-44 20,-44"/>
<text text-anchor="middle" x="188.9177" y="-1288.2" font-family="Times,serif" font-size="11.00" fill="#c0c0c0">Global</text>
</g>
<g id="clust2" class="cluster">
<title>cluster_\RtmClient</title>
<path fill="none" stroke="#c0c0c0" d="M28,-52C28,-52 349.8354,-52 349.8354,-52 355.8354,-52 361.8354,-58 361.8354,-64 361.8354,-64 361.8354,-1262 361.8354,-1262 361.8354,-1268 355.8354,-1274 349.8354,-1274 349.8354,-1274 28,-1274 28,-1274 22,-1274 16,-1268 16,-1262 16,-1262 16,-64 16,-64 16,-58 22,-52 28,-52"/>
<text text-anchor="middle" x="188.9177" y="-1261.2" font-family="Times,serif" font-size="11.00" fill="#c0c0c0">RtmClient</text>
</g>
<g id="clust3" class="cluster">
<title>cluster_\RtmClient\Subscription</title>
<path fill="none" stroke="#c0c0c0" d="M218.3167,-1122C218.3167,-1122 305.5295,-1122 305.5295,-1122 311.5295,-1122 317.5295,-1128 317.5295,-1134 317.5295,-1134 317.5295,-1235 317.5295,-1235 317.5295,-1241 311.5295,-1247 305.5295,-1247 305.5295,-1247 218.3167,-1247 218.3167,-1247 212.3167,-1247 206.3167,-1241 206.3167,-1235 206.3167,-1235 206.3167,-1134 206.3167,-1134 206.3167,-1128 212.3167,-1122 218.3167,-1122"/>
<text text-anchor="middle" x="261.9231" y="-1234.2" font-family="Times,serif" font-size="11.00" fill="#c0c0c0">Subscription</text>
</g>
<g id="clust4" class="cluster">
<title>cluster_\RtmClient\Auth</title>
<path fill="none" stroke="#c0c0c0" d="M42.0054,-1043C42.0054,-1043 292.3274,-1043 292.3274,-1043 298.3274,-1043 304.3274,-1049 304.3274,-1055 304.3274,-1055 304.3274,-1102 304.3274,-1102 304.3274,-1108 298.3274,-1114 292.3274,-1114 292.3274,-1114 42.0054,-1114 42.0054,-1114 36.0054,-1114 30.0054,-1108 30.0054,-1102 30.0054,-1102 30.0054,-1055 30.0054,-1055 30.0054,-1049 36.0054,-1043 42.0054,-1043"/>
<text text-anchor="middle" x="167.1664" y="-1101.2" font-family="Times,serif" font-size="11.00" fill="#c0c0c0">Auth</text>
</g>
<g id="clust5" class="cluster">
<title>cluster_\RtmClient\Exceptions</title>
<path fill="none" stroke="#c0c0c0" d="M182.0107,-910C182.0107,-910 341.8354,-910 341.8354,-910 347.8354,-910 353.8354,-916 353.8354,-922 353.8354,-922 353.8354,-1023 353.8354,-1023 353.8354,-1029 347.8354,-1035 341.8354,-1035 341.8354,-1035 182.0107,-1035 182.0107,-1035 176.0107,-1035 170.0107,-1029 170.0107,-1023 170.0107,-1023 170.0107,-922 170.0107,-922 170.0107,-916 176.0107,-910 182.0107,-910"/>
<text text-anchor="middle" x="261.9231" y="-1022.2" font-family="Times,serif" font-size="11.00" fill="#c0c0c0">Exceptions</text>
</g>
<g id="clust6" class="cluster">
<title>cluster_\RtmClient\WebSocket</title>
<path fill="none" stroke="#c0c0c0" d="M187.2129,-534C187.2129,-534 336.6333,-534 336.6333,-534 342.6333,-534 348.6333,-540 348.6333,-546 348.6333,-546 348.6333,-890 348.6333,-890 348.6333,-896 342.6333,-902 336.6333,-902 336.6333,-902 187.2129,-902 187.2129,-902 181.2129,-902 175.2129,-896 175.2129,-890 175.2129,-890 175.2129,-546 175.2129,-546 175.2129,-540 181.2129,-534 187.2129,-534"/>
<text text-anchor="middle" x="261.9231" y="-889.2" font-family="Times,serif" font-size="11.00" fill="#c0c0c0">WebSocket</text>
</g>
<g id="clust7" class="cluster">
<title>cluster_\RtmClient\WebSocket\Exceptions</title>
<path fill="none" stroke="#c0c0c0" d="M195.2129,-696C195.2129,-696 328.6333,-696 328.6333,-696 334.6333,-696 340.6333,-702 340.6333,-708 340.6333,-708 340.6333,-863 340.6333,-863 340.6333,-869 334.6333,-875 328.6333,-875 328.6333,-875 195.2129,-875 195.2129,-875 189.2129,-875 183.2129,-869 183.2129,-863 183.2129,-863 183.2129,-708 183.2129,-708 183.2129,-702 189.2129,-696 195.2129,-696"/>
<text text-anchor="middle" x="261.9231" y="-862.2" font-family="Times,serif" font-size="11.00" fill="#c0c0c0">Exceptions</text>
</g>
<g id="clust8" class="cluster">
<title>cluster_\RtmClient\Logger</title>
<path fill="none" stroke="#c0c0c0" d="M231.5188,-401C231.5188,-401 292.3274,-401 292.3274,-401 298.3274,-401 304.3274,-407 304.3274,-413 304.3274,-413 304.3274,-514 304.3274,-514 304.3274,-520 298.3274,-526 292.3274,-526 292.3274,-526 231.5188,-526 231.5188,-526 225.5188,-526 219.5188,-520 219.5188,-514 219.5188,-514 219.5188,-413 219.5188,-413 219.5188,-407 225.5188,-401 231.5188,-401"/>
<text text-anchor="middle" x="261.9231" y="-513.2" font-family="Times,serif" font-size="11.00" fill="#c0c0c0">Logger</text>
</g>
<g id="clust9" class="cluster">
<title>cluster_\RtmClient\Pdu</title>
<path fill="none" stroke="#c0c0c0" d="M224.9177,-214C224.9177,-214 298.9285,-214 298.9285,-214 304.9285,-214 310.9285,-220 310.9285,-226 310.9285,-226 310.9285,-381 310.9285,-381 310.9285,-387 304.9285,-393 298.9285,-393 298.9285,-393 224.9177,-393 224.9177,-393 218.9177,-393 212.9177,-387 212.9177,-381 212.9177,-381 212.9177,-226 212.9177,-226 212.9177,-220 218.9177,-214 224.9177,-214"/>
<text text-anchor="middle" x="261.9231" y="-380.2" font-family="Times,serif" font-size="11.00" fill="#c0c0c0">Pdu</text>
</g>
<!-- \\RtmClient\\Subscription\\Events -->
<g id="node1" class="node">
<title>\\RtmClient\\Subscription\\Events</title>
<polygon fill="none" stroke="#000000" points="289.5309,-1220 234.3153,-1220 234.3153,-1184 289.5309,-1184 289.5309,-1220"/>
<text text-anchor="middle" x="261.9231" y="-1198.7" font-family="Courier,monospace" font-size="11.00" fill="#000000">Events</text>
</g>
<!-- \\RtmClient\\Subscription\\Subscription -->
<g id="node2" class="node">
<title>\\RtmClient\\Subscription\\Subscription</title>
<polygon fill="none" stroke="#000000" points="309.6362,-1166 214.21,-1166 214.21,-1130 309.6362,-1130 309.6362,-1166"/>
<text text-anchor="middle" x="261.9231" y="-1144.7" font-family="Courier,monospace" font-size="11.00" fill="#000000">Subscription</text>
</g>
<!-- \\RtmClient\\Auth\\RoleAuth -->
<g id="node3" class="node">
<title>\\RtmClient\\Auth\\RoleAuth</title>
<polygon fill="none" stroke="#000000" points="296.232,-1087 227.6142,-1087 227.6142,-1051 296.232,-1051 296.232,-1087"/>
<text text-anchor="middle" x="261.9231" y="-1065.7" font-family="Courier,monospace" font-size="11.00" fill="#000000">RoleAuth</text>
</g>
<!-- \\RtmClient\\Auth\\iAuth -->
<g id="node4" class="node">
<title>\\RtmClient\\Auth\\iAuth</title>
<polygon fill="none" stroke="#000000" points="92.0054,-1087 38.0054,-1087 38.0054,-1051 92.0054,-1051 92.0054,-1087"/>
<text text-anchor="middle" x="65.0054" y="-1065.7" font-family="Courier,monospace" font-size="11.00" fill="#000000">iAuth</text>
</g>
<!-- \\RtmClient\\Auth\\RoleAuth&#45;&gt;\\RtmClient\\Auth\\iAuth -->
<g id="edge1" class="edge">
<title>\\RtmClient\\Auth\\RoleAuth&#45;&gt;\\RtmClient\\Auth\\iAuth</title>
<path fill="none" stroke="#000000" stroke-dasharray="1,5" d="M227.1714,-1069C192.0995,-1069 138.1278,-1069 102.2062,-1069"/>
<polygon fill="none" stroke="#000000" points="102.1317,-1065.5001 92.1316,-1069 102.1316,-1072.5001 102.1317,-1065.5001"/>
</g>
<!-- \\RtmClient\\Exceptions\\ApplicationException -->
<g id="node5" class="node">
<title>\\RtmClient\\Exceptions\\ApplicationException</title>
<polygon fill="none" stroke="#000000" points="335.9446,-1008 187.9016,-1008 187.9016,-972 335.9446,-972 335.9446,-1008"/>
<text text-anchor="middle" x="261.9231" y="-986.7" font-family="Courier,monospace" font-size="11.00" fill="#000000">ApplicationException</text>
</g>
<!-- \\Exception -->
<g id="node22" class="node">
<title>\\Exception</title>
<ellipse fill="none" stroke="#000000" cx="65.0054" cy="-18" rx="40.6162" ry="18"/>
<text text-anchor="middle" x="65.0054" y="-13.8" font-family="Times,serif" font-size="14.00" fill="#c0c0c0">xception</text>
</g>
<!-- \\RtmClient\\Exceptions\\ApplicationException&#45;&gt;\\Exception -->
<g id="edge2" class="edge">
<title>\\RtmClient\\Exceptions\\ApplicationException&#45;&gt;\\Exception</title>
<path fill="none" stroke="#000000" d="M187.5277,-977.3356C180.8457,-973.6515 174.8061,-968.961 170.0107,-963 42.2478,-804.1814 204.536,-226.4362 106.0107,-48 104.1534,-44.6362 101.7407,-41.5484 99.0156,-38.7403"/>
<polygon fill="none" stroke="#000000" points="101.0772,-35.8943 91.239,-31.9622 96.4778,-41.1712 101.0772,-35.8943"/>
</g>
<!-- \\RtmClient\\Exceptions\\AuthenticationException -->
<g id="node6" class="node">
<title>\\RtmClient\\Exceptions\\AuthenticationException</title>
<polygon fill="none" stroke="#000000" points="345.7479,-954 178.0983,-954 178.0983,-918 345.7479,-918 345.7479,-954"/>
<text text-anchor="middle" x="261.9231" y="-932.7" font-family="Courier,monospace" font-size="11.00" fill="#000000">AuthenticationException</text>
</g>
<!-- \\RtmClient\\Exceptions\\AuthenticationException&#45;&gt;\\Exception -->
<g id="edge6" class="edge">
<title>\\RtmClient\\Exceptions\\AuthenticationException&#45;&gt;\\Exception</title>
<path fill="none" stroke="#000000" d="M215.3661,-917.9956C198.2173,-908.9411 180.4481,-896.1669 170.0107,-879 73.7907,-720.7415 196.1069,-209.8232 106.0107,-48 104.1415,-44.6427 101.7211,-41.5593 98.9912,-38.7538"/>
<polygon fill="none" stroke="#000000" points="101.0489,-35.9048 91.2081,-31.9793 96.4531,-41.1848 101.0489,-35.9048"/>
</g>
<!-- \\RtmClient\\WebSocket\\Exceptions\\BadSchemeException -->
<g id="node7" class="node">
<title>\\RtmClient\\WebSocket\\Exceptions\\BadSchemeException</title>
<polygon fill="none" stroke="#000000" points="329.2426,-848 194.6036,-848 194.6036,-812 329.2426,-812 329.2426,-848"/>
<text text-anchor="middle" x="261.9231" y="-826.7" font-family="Courier,monospace" font-size="11.00" fill="#000000">BadSchemeException</text>
</g>
<!-- \\RtmClient\\WebSocket\\Exceptions\\BadSchemeException&#45;&gt;\\Exception -->
<g id="edge3" class="edge">
<title>\\RtmClient\\WebSocket\\Exceptions\\BadSchemeException&#45;&gt;\\Exception</title>
<path fill="none" stroke="#000000" d="M194.3494,-820.5459C185.0054,-816.5037 176.4278,-810.8577 170.0107,-803 63.5049,-672.5846 188.484,-194.7986 106.0107,-48 104.1286,-44.6499 101.6997,-41.5713 98.9645,-38.7687"/>
<polygon fill="none" stroke="#000000" points="101.0181,-35.9164 91.1744,-31.9982 96.4262,-41.1998 101.0181,-35.9164"/>
</g>
<!-- \\RtmClient\\WebSocket\\Exceptions\\ConnectionException -->
<g id="node8" class="node">
<title>\\RtmClient\\WebSocket\\Exceptions\\ConnectionException</title>
<polygon fill="none" stroke="#000000" points="332.8441,-794 191.0021,-794 191.0021,-758 332.8441,-758 332.8441,-794"/>
<text text-anchor="middle" x="261.9231" y="-772.7" font-family="Courier,monospace" font-size="11.00" fill="#000000">ConnectionException</text>
</g>
<!-- \\RtmClient\\WebSocket\\Exceptions\\ConnectionException&#45;&gt;\\Exception -->
<g id="edge4" class="edge">
<title>\\RtmClient\\WebSocket\\Exceptions\\ConnectionException&#45;&gt;\\Exception</title>
<path fill="none" stroke="#000000" d="M191.2071,-765.0556C183.1007,-761.1497 175.714,-755.9375 170.0107,-749 70.6741,-628.1645 183.0704,-184.1279 106.0107,-48 104.1178,-44.656 101.6817,-41.5815 98.9421,-38.7814"/>
<polygon fill="none" stroke="#000000" points="100.9923,-35.9263 91.1461,-32.0141 96.4036,-41.2125 100.9923,-35.9263"/>
</g>
<!-- \\RtmClient\\WebSocket\\Exceptions\\TimeoutException -->
<g id="node9" class="node">
<title>\\RtmClient\\WebSocket\\Exceptions\\TimeoutException</title>
<polygon fill="none" stroke="#000000" points="322.5409,-740 201.3053,-740 201.3053,-704 322.5409,-704 322.5409,-740"/>
<text text-anchor="middle" x="261.9231" y="-718.7" font-family="Courier,monospace" font-size="11.00" fill="#000000">TimeoutException</text>
</g>
<!-- \\RtmClient\\WebSocket\\Exceptions\\TimeoutException&#45;&gt;\\Exception -->
<g id="edge5" class="edge">
<title>\\RtmClient\\WebSocket\\Exceptions\\TimeoutException&#45;&gt;\\Exception</title>
<path fill="none" stroke="#000000" d="M201.1801,-718.4711C189.3325,-715.0066 178.0958,-709.2771 170.0107,-700 74.3591,-590.2465 178.1605,-174.4495 106.0107,-48 104.1064,-44.6625 101.6628,-41.5922 98.9187,-38.7947"/>
<polygon fill="none" stroke="#000000" points="100.9652,-35.9367 91.1165,-32.031 96.3799,-41.226 100.9652,-35.9367"/>
</g>
<!-- \\RtmClient\\WebSocket\\Client -->
<g id="node10" class="node">
<title>\\RtmClient\\WebSocket\\Client</title>
<polygon fill="none" stroke="#000000" points="289.5309,-686 234.3153,-686 234.3153,-650 289.5309,-650 289.5309,-686"/>
<text text-anchor="middle" x="261.9231" y="-664.7" font-family="Courier,monospace" font-size="11.00" fill="#000000">Client</text>
</g>
<!-- \\RtmClient\\WebSocket\\OpCode -->
<g id="node11" class="node">
<title>\\RtmClient\\WebSocket\\OpCode</title>
<polygon fill="none" stroke="#000000" points="289.5309,-632 234.3153,-632 234.3153,-596 289.5309,-596 289.5309,-632"/>
<text text-anchor="middle" x="261.9231" y="-610.7" font-family="Courier,monospace" font-size="11.00" fill="#000000">OpCode</text>
</g>
<!-- \\RtmClient\\WebSocket\\ReturnCode -->
<g id="node12" class="node">
<title>\\RtmClient\\WebSocket\\ReturnCode</title>
<polygon fill="none" stroke="#000000" points="302.9338,-578 220.9124,-578 220.9124,-542 302.9338,-542 302.9338,-578"/>
<text text-anchor="middle" x="261.9231" y="-556.7" font-family="Courier,monospace" font-size="11.00" fill="#000000">ReturnCode</text>
</g>
<!-- \\RtmClient\\Logger\\Logger -->
<g id="node13" class="node">
<title>\\RtmClient\\Logger\\Logger</title>
<polygon fill="none" stroke="#000000" points="289.5309,-499 234.3153,-499 234.3153,-463 289.5309,-463 289.5309,-499"/>
<text text-anchor="middle" x="261.9231" y="-477.7" font-family="Courier,monospace" font-size="11.00" fill="#000000">Logger</text>
</g>
<!-- \\RtmClient\\Logger\\LogLevel -->
<g id="node14" class="node">
<title>\\RtmClient\\Logger\\LogLevel</title>
<polygon fill="none" stroke="#000000" points="296.232,-445 227.6142,-445 227.6142,-409 296.232,-409 296.232,-445"/>
<text text-anchor="middle" x="261.9231" y="-423.7" font-family="Courier,monospace" font-size="11.00" fill="#000000">LogLevel</text>
</g>
<!-- \\RtmClient\\Pdu\\Pdu -->
<g id="node15" class="node">
<title>\\RtmClient\\Pdu\\Pdu</title>
<polygon fill="none" stroke="#000000" points="288.9231,-366 234.9231,-366 234.9231,-330 288.9231,-330 288.9231,-366"/>
<text text-anchor="middle" x="261.9231" y="-344.7" font-family="Courier,monospace" font-size="11.00" fill="#000000">Pdu</text>
</g>
<!-- \\RtmClient\\Pdu\\Helper -->
<g id="node16" class="node">
<title>\\RtmClient\\Pdu\\Helper</title>
<polygon fill="none" stroke="#000000" points="289.5309,-312 234.3153,-312 234.3153,-276 289.5309,-276 289.5309,-312"/>
<text text-anchor="middle" x="261.9231" y="-290.7" font-family="Courier,monospace" font-size="11.00" fill="#000000">Helper</text>
</g>
<!-- \\RtmClient\\Pdu\\ReturnCode -->
<g id="node17" class="node">
<title>\\RtmClient\\Pdu\\ReturnCode</title>
<polygon fill="none" stroke="#000000" points="302.9338,-258 220.9124,-258 220.9124,-222 302.9338,-222 302.9338,-258"/>
<text text-anchor="middle" x="261.9231" y="-236.7" font-family="Courier,monospace" font-size="11.00" fill="#000000">ReturnCode</text>
</g>
<!-- \\RtmClient\\Connection -->
<g id="node18" class="node">
<title>\\RtmClient\\Connection</title>
<polygon fill="none" stroke="#000000" points="302.9338,-204 220.9124,-204 220.9124,-168 302.9338,-168 302.9338,-204"/>
<text text-anchor="middle" x="261.9231" y="-182.7" font-family="Courier,monospace" font-size="11.00" fill="#000000">Connection</text>
</g>
<!-- \\RtmClient\\Observable -->
<g id="node19" class="node">
<title>\\RtmClient\\Observable</title>
<polygon fill="none" stroke="#000000" points="106.0161,-96 23.9946,-96 23.9946,-60 106.0161,-60 106.0161,-96"/>
<text text-anchor="start" x="32" y="-80.2" font-family="Courier,monospace" font-size="11.00" fill="#000000">«abstract»</text>
<text text-anchor="start" x="32" y="-69.2" font-family="Courier,monospace" font-size="11.00" fill="#000000">Observable</text>
</g>
<!-- \\RtmClient\\RtmEvents -->
<g id="node20" class="node">
<title>\\RtmClient\\RtmEvents</title>
<polygon fill="none" stroke="#000000" points="299.8339,-150 224.0123,-150 224.0123,-114 299.8339,-114 299.8339,-150"/>
<text text-anchor="middle" x="261.9231" y="-128.7" font-family="Courier,monospace" font-size="11.00" fill="#000000">RtmEvents</text>
</g>
<!-- \\RtmClient\\RtmClient -->
<g id="node21" class="node">
<title>\\RtmClient\\RtmClient</title>
<polygon fill="none" stroke="#000000" points="299.8339,-96 224.0123,-96 224.0123,-60 299.8339,-60 299.8339,-96"/>
<text text-anchor="middle" x="261.9231" y="-74.7" font-family="Courier,monospace" font-size="11.00" fill="#000000">RtmClient</text>
</g>
<!-- \\RtmClient\\RtmClient&#45;&gt;\\RtmClient\\Observable -->
<g id="edge7" class="edge">
<title>\\RtmClient\\RtmClient&#45;&gt;\\RtmClient\\Observable</title>
<path fill="none" stroke="#000000" d="M223.9554,-78C193.3676,-78 150.0627,-78 116.3766,-78"/>
<polygon fill="none" stroke="#000000" points="116.2558,-74.5001 106.2558,-78 116.2558,-81.5001 116.2558,-74.5001"/>
</g>
</g>
</svg>
