<?xml version="1.0" encoding="UTF-8" standalone="no"?>
<!DOCTYPE svg PUBLIC "-//W3C//DTD SVG 1.1//EN"
 "http://www.w3.org/Graphics/SVG/1.1/DTD/svg11.dtd">
<!-- Generated by graphviz version 2.40.1 (20161225.0304)
 -->
<!-- Title: G Pages: 1 -->
<svg width="386pt" height="1301pt"
 viewBox="0.00 0.00 385.84 1301.00" xmlns="http://www.w3.org/2000/svg" xmlns:xlink="http://www.w3.org/1999/xlink">
<g id="graph0" class="graph" transform="scale(1 1) rotate(0) translate(4 1297)">
<title>G</title>
<polygon fill="#ffffff" stroke="transparent" points="-4,4 -4,-1297 381.8354,-1297 381.8354,4 -4,4"/>
<g id="clust1" class="cluster">
<title>cluster_Global</title>
<path fill="none" stroke="#c0c0c0" d="M20,-44C20,-44 357.8354,-44 357.8354,-44 363.8354,-44 369.8354,-50 369.8354,-56 369.8354,-56 369.8354,-1273 369.8354,-1273 369.8354,-1279 363.8354,-1285 357.8354,-1285 357.8354,-1285 20,-1285 20,-1285 14,-1285 8,-1279 8,-1273 8,-1273 8,-56 8,-56 8,-50 14,-44 20,-44"/>
<text text-anchor="middle" x="188.9177" y="-1272.2" font-family="Times,serif" font-size="11.00" fill="#c0c0c0">Global</text>
</g>
<g id="clust2" class="cluster">
<title>cluster_\RtmClient</title>
<path fill="none" stroke="#c0c0c0" d="M28,-52C28,-52 349.8354,-52 349.8354,-52 355.8354,-52 361.8354,-58 361.8354,-64 361.8354,-64 361.8354,-1246 361.8354,-1246 361.8354,-1252 355.8354,-1258 349.8354,-1258 349.8354,-1258 28,-1258 28,-1258 22,-1258 16,-1252 16,-1246 16,-1246 16,-64 16,-64 16,-58 22,-52 28,-52"/>
<text text-anchor="middle" x="188.9177" y="-1245.2" font-family="Times,serif" font-size="11.00" fill="#c0c0c0">RtmClient</text>
</g>
<g id="clust3" class="cluster">
<title>cluster_\RtmClient\Auth</title>
<path fill="none" stroke="#c0c0c0" d="M42.0054,-1160C42.0054,-1160 292.3274,-1160 292.3274,-1160 298.3274,-1160 304.3274,-1166 304.3274,-1172 304.3274,-1172 304.3274,-1219 304.3274,-1219 304.3274,-1225 298.3274,-1231 292.3274,-1231 292.3274,-1231 42.0054,-1231 42.0054,-1231 36.0054,-1231 30.0054,-1225 30.0054,-1219 30.0054,-1219 30.0054,-1172 30.0054,-1172 30.0054,-1166 36.0054,-1160 42.0054,-1160"/>
<text text-anchor="middle" x="167.1664" y="-1218.2" font-family="Times,serif" font-size="11.00" fill="#c0c0c0">Auth</text>
</g>
<g id="clust4" class="cluster">
<title>cluster_\RtmClient\Exceptions</title>
<path fill="none" stroke="#c0c0c0" d="M182.0107,-1027C182.0107,-1027 341.8354,-1027 341.8354,-1027 347.8354,-1027 353.8354,-1033 353.8354,-1039 353.8354,-1039 353.8354,-1140 353.8354,-1140 353.8354,-1146 347.8354,-1152 341.8354,-1152 341.8354,-1152 182.0107,-1152 182.0107,-1152 176.0107,-1152 170.0107,-1146 170.0107,-1140 170.0107,-1140 170.0107,-1039 170.0107,-1039 170.0107,-1033 176.0107,-1027 182.0107,-1027"/>
<text text-anchor="middle" x="261.9231" y="-1139.2" font-family="Times,serif" font-size="11.00" fill="#c0c0c0">Exceptions</text>
</g>
<g id="clust5" class="cluster">
<title>cluster_\RtmClient\Logger</title>
<path fill="none" stroke="#c0c0c0" d="M231.5188,-894C231.5188,-894 292.3274,-894 292.3274,-894 298.3274,-894 304.3274,-900 304.3274,-906 304.3274,-906 304.3274,-1007 304.3274,-1007 304.3274,-1013 298.3274,-1019 292.3274,-1019 292.3274,-1019 231.5188,-1019 231.5188,-1019 225.5188,-1019 219.5188,-1013 219.5188,-1007 219.5188,-1007 219.5188,-906 219.5188,-906 219.5188,-900 225.5188,-894 231.5188,-894"/>
<text text-anchor="middle" x="261.9231" y="-1006.2" font-family="Times,serif" font-size="11.00" fill="#c0c0c0">Logger</text>
</g>
<g id="clust6" class="cluster">
<title>cluster_\RtmClient\Pdu</title>
<path fill="none" stroke="#c0c0c0" d="M224.9177,-707C224.9177,-707 298.9285,-707 298.9285,-707 304.9285,-707 310.9285,-713 310.9285,-719 310.9285,-719 310.9285,-874 310.9285,-874 310.9285,-880 304.9285,-886 298.9285,-886 298.9285,-886 224.9177,-886 224.9177,-886 218.9177,-886 212.9177,-880 212.9177,-874 212.9177,-874 212.9177,-719 212.9177,-719 212.9177,-713 218.9177,-707 224.9177,-707"/>
<text text-anchor="middle" x="261.9231" y="-873.2" font-family="Times,serif" font-size="11.00" fill="#c0c0c0">Pdu</text>
</g>
<g id="clust7" class="cluster">
<title>cluster_\RtmClient\Subscription</title>
<path fill="none" stroke="#c0c0c0" d="M218.3167,-528C218.3167,-528 305.5295,-528 305.5295,-528 311.5295,-528 317.5295,-534 317.5295,-540 317.5295,-540 317.5295,-641 317.5295,-641 317.5295,-647 311.5295,-653 305.5295,-653 305.5295,-653 218.3167,-653 218.3167,-653 212.3167,-653 206.3167,-647 206.3167,-641 206.3167,-641 206.3167,-540 206.3167,-540 206.3167,-534 212.3167,-528 218.3167,-528"/>
<text text-anchor="middle" x="261.9231" y="-640.2" font-family="Times,serif" font-size="11.00" fill="#c0c0c0">Subscription</text>
</g>
<g id="clust8" class="cluster">
<title>cluster_\RtmClient\WebSocket</title>
<path fill="none" stroke="#c0c0c0" d="M187.2129,-106C187.2129,-106 336.6333,-106 336.6333,-106 342.6333,-106 348.6333,-112 348.6333,-118 348.6333,-118 348.6333,-462 348.6333,-462 348.6333,-468 342.6333,-474 336.6333,-474 336.6333,-474 187.2129,-474 187.2129,-474 181.2129,-474 175.2129,-468 175.2129,-462 175.2129,-462 175.2129,-118 175.2129,-118 175.2129,-112 181.2129,-106 187.2129,-106"/>
<text text-anchor="middle" x="261.9231" y="-461.2" font-family="Times,serif" font-size="11.00" fill="#c0c0c0">WebSocket</text>
</g>
<g id="clust9" class="cluster">
<title>cluster_\RtmClient\WebSocket\Exceptions</title>
<path fill="none" stroke="#c0c0c0" d="M195.2129,-268C195.2129,-268 328.6333,-268 328.6333,-268 334.6333,-268 340.6333,-274 340.6333,-280 340.6333,-280 340.6333,-435 340.6333,-435 340.6333,-441 334.6333,-447 328.6333,-447 328.6333,-447 195.2129,-447 195.2129,-447 189.2129,-447 183.2129,-441 183.2129,-435 183.2129,-435 183.2129,-280 183.2129,-280 183.2129,-274 189.2129,-268 195.2129,-268"/>
<text text-anchor="middle" x="261.9231" y="-434.2" font-family="Times,serif" font-size="11.00" fill="#c0c0c0">Exceptions</text>
</g>
<!-- \\RtmClient\\Auth\\RoleAuth -->
<g id="node1" class="node">
<title>\\RtmClient\\Auth\\RoleAuth</title>
<polygon fill="none" stroke="#000000" points="296.232,-1204 227.6142,-1204 227.6142,-1168 296.232,-1168 296.232,-1204"/>
<text text-anchor="middle" x="261.9231" y="-1182.7" font-family="Courier,monospace" font-size="11.00" fill="#000000">RoleAuth</text>
</g>
<!-- \\RtmClient\\Auth\\iAuth -->
<g id="node2" class="node">
<title>\\RtmClient\\Auth\\iAuth</title>
<polygon fill="none" stroke="#000000" points="92.0054,-1204 38.0054,-1204 38.0054,-1168 92.0054,-1168 92.0054,-1204"/>
<text text-anchor="middle" x="65.0054" y="-1182.7" font-family="Courier,monospace" font-size="11.00" fill="#000000">iAuth</text>
</g>
<!-- \\RtmClient\\Auth\\RoleAuth&#45;&gt;\\RtmClient\\Auth\\iAuth -->
<g id="edge1" class="edge">
<title>\\RtmClient\\Auth\\RoleAuth&#45;&gt;\\RtmClient\\Auth\\iAuth</title>
<path fill="none" stroke="#000000" stroke-dasharray="1,5" d="M227.1714,-1186C192.0995,-1186 138.1278,-1186 102.2062,-1186"/>
<polygon fill="none" stroke="#000000" points="102.1317,-1182.5001 92.1316,-1186 102.1316,-1189.5001 102.1317,-1182.5001"/>
</g>
<!-- \\RtmClient\\Exceptions\\ApplicationException -->
<g id="node3" class="node">
<title>\\RtmClient\\Exceptions\\ApplicationException</title>
<polygon fill="none" stroke="#000000" points="335.9446,-1125 187.9016,-1125 187.9016,-1089 335.9446,-1089 335.9446,-1125"/>
<text text-anchor="middle" x="261.9231" y="-1103.7" font-family="Courier,monospace" font-size="11.00" fill="#000000">ApplicationException</text>
</g>
<!-- \\Exception -->
<g id="node22" class="node">
<title>\\Exception</title>
<ellipse fill="none" stroke="#000000" cx="65.0054" cy="-18" rx="40.6162" ry="18"/>
<text text-anchor="middle" x="65.0054" y="-13.8" font-family="Times,serif" font-size="14.00" fill="#c0c0c0">xception</text>
</g>
<!-- \\RtmClient\\Exceptions\\ApplicationException&#45;&gt;\\Exception -->
<g id="edge2" class="edge">
<title>\\RtmClient\\Exceptions\\ApplicationException&#45;&gt;\\Exception</title>
<path fill="none" stroke="#000000" d="M187.4801,-1094.3737C180.8071,-1090.6824 174.7825,-1085.9798 170.0107,-1080 26.6938,-900.3996 216.2815,-249.5847 106.0107,-48 104.1667,-44.6288 101.7628,-41.5363 99.0431,-38.7252"/>
<polygon fill="none" stroke="#000000" points="101.1089,-35.8826 91.2736,-31.9432 96.5056,-41.1561 101.1089,-35.8826"/>
</g>
<!-- \\RtmClient\\Exceptions\\AuthenticationException -->
<g id="node4" class="node">
<title>\\RtmClient\\Exceptions\\AuthenticationException</title>
<polygon fill="none" stroke="#000000" points="345.7479,-1071 178.0983,-1071 178.0983,-1035 345.7479,-1035 345.7479,-1071"/>
<text text-anchor="middle" x="261.9231" y="-1049.7" font-family="Courier,monospace" font-size="11.00" fill="#000000">AuthenticationException</text>
</g>
<!-- \\RtmClient\\Exceptions\\AuthenticationException&#45;&gt;\\Exception -->
<g id="edge3" class="edge">
<title>\\RtmClient\\Exceptions\\AuthenticationException&#45;&gt;\\Exception</title>
<path fill="none" stroke="#000000" d="M182.7527,-1034.902C177.9513,-1031.5713 173.6147,-1027.6396 170.0107,-1023 36.8102,-851.5231 210.5588,-238.3061 106.0107,-48 104.1606,-44.6322 101.7527,-41.5418 99.0305,-38.7321"/>
<polygon fill="none" stroke="#000000" points="101.0944,-35.8879 91.2578,-31.9519 96.4929,-41.163 101.0944,-35.8879"/>
</g>
<!-- \\RtmClient\\Logger\\Logger -->
<g id="node5" class="node">
<title>\\RtmClient\\Logger\\Logger</title>
<polygon fill="none" stroke="#000000" points="289.5309,-992 234.3153,-992 234.3153,-956 289.5309,-956 289.5309,-992"/>
<text text-anchor="middle" x="261.9231" y="-970.7" font-family="Courier,monospace" font-size="11.00" fill="#000000">Logger</text>
</g>
<!-- \\RtmClient\\Logger\\LogLevel -->
<g id="node6" class="node">
<title>\\RtmClient\\Logger\\LogLevel</title>
<polygon fill="none" stroke="#000000" points="296.232,-938 227.6142,-938 227.6142,-902 296.232,-902 296.232,-938"/>
<text text-anchor="middle" x="261.9231" y="-916.7" font-family="Courier,monospace" font-size="11.00" fill="#000000">LogLevel</text>
</g>
<!-- \\RtmClient\\Pdu\\Helper -->
<g id="node7" class="node">
<title>\\RtmClient\\Pdu\\Helper</title>
<polygon fill="none" stroke="#000000" points="289.5309,-859 234.3153,-859 234.3153,-823 289.5309,-823 289.5309,-859"/>
<text text-anchor="middle" x="261.9231" y="-837.7" font-family="Courier,monospace" font-size="11.00" fill="#000000">Helper</text>
</g>
<!-- \\RtmClient\\Pdu\\Pdu -->
<g id="node8" class="node">
<title>\\RtmClient\\Pdu\\Pdu</title>
<polygon fill="none" stroke="#000000" points="288.9231,-805 234.9231,-805 234.9231,-769 288.9231,-769 288.9231,-805"/>
<text text-anchor="middle" x="261.9231" y="-783.7" font-family="Courier,monospace" font-size="11.00" fill="#000000">Pdu</text>
</g>
<!-- \\RtmClient\\Pdu\\ReturnCode -->
<g id="node9" class="node">
<title>\\RtmClient\\Pdu\\ReturnCode</title>
<polygon fill="none" stroke="#000000" points="302.9338,-751 220.9124,-751 220.9124,-715 302.9338,-715 302.9338,-751"/>
<text text-anchor="middle" x="261.9231" y="-729.7" font-family="Courier,monospace" font-size="11.00" fill="#000000">ReturnCode</text>
</g>
<!-- \\RtmClient\\Subscription\\Events -->
<g id="node10" class="node">
<title>\\RtmClient\\Subscription\\Events</title>
<polygon fill="none" stroke="#000000" points="289.5309,-626 234.3153,-626 234.3153,-590 289.5309,-590 289.5309,-626"/>
<text text-anchor="middle" x="261.9231" y="-604.7" font-family="Courier,monospace" font-size="11.00" fill="#000000">Events</text>
</g>
<!-- \\RtmClient\\Subscription\\Subscription -->
<g id="node11" class="node">
<title>\\RtmClient\\Subscription\\Subscription</title>
<polygon fill="none" stroke="#000000" points="309.6362,-572 214.21,-572 214.21,-536 309.6362,-536 309.6362,-572"/>
<text text-anchor="middle" x="261.9231" y="-550.7" font-family="Courier,monospace" font-size="11.00" fill="#000000">Subscription</text>
</g>
<!-- \\RtmClient\\Observable -->
<g id="node19" class="node">
<title>\\RtmClient\\Observable</title>
<polygon fill="none" stroke="#000000" points="106.0161,-634 23.9946,-634 23.9946,-598 106.0161,-598 106.0161,-634"/>
<text text-anchor="start" x="32" y="-618.2" font-family="Courier,monospace" font-size="11.00" fill="#000000">«abstract»</text>
<text text-anchor="start" x="32" y="-607.2" font-family="Courier,monospace" font-size="11.00" fill="#000000">Observable</text>
</g>
<!-- \\RtmClient\\Subscription\\Subscription&#45;&gt;\\RtmClient\\Observable -->
<g id="edge5" class="edge">
<title>\\RtmClient\\Subscription\\Subscription&#45;&gt;\\RtmClient\\Observable</title>
<path fill="none" stroke="#000000" d="M214.1201,-567.6882C199.894,-571.8572 184.2938,-576.5233 170.0107,-581 152.3067,-586.5489 133.0205,-592.8908 115.8639,-598.6382"/>
<polygon fill="none" stroke="#000000" points="114.3993,-595.438 106.0366,-601.943 116.6306,-602.0729 114.3993,-595.438"/>
</g>
<!-- \\RtmClient\\WebSocket\\Exceptions\\BadSchemeException -->
<g id="node12" class="node">
<title>\\RtmClient\\WebSocket\\Exceptions\\BadSchemeException</title>
<polygon fill="none" stroke="#000000" points="329.2426,-312 194.6036,-312 194.6036,-276 329.2426,-276 329.2426,-312"/>
<text text-anchor="middle" x="261.9231" y="-290.7" font-family="Courier,monospace" font-size="11.00" fill="#000000">BadSchemeException</text>
</g>
<!-- \\RtmClient\\WebSocket\\Exceptions\\BadSchemeException&#45;&gt;\\Exception -->
<g id="edge6" class="edge">
<title>\\RtmClient\\WebSocket\\Exceptions\\BadSchemeException&#45;&gt;\\Exception</title>
<path fill="none" stroke="#000000" d="M194.3619,-286.6878C185.3611,-283.3104 176.8842,-278.5817 170.0107,-272 95.2274,-200.391 165.2176,-132.9408 106.0107,-48 103.7488,-44.7549 101.0211,-41.7262 98.0602,-38.9376"/>
<polygon fill="none" stroke="#000000" points="100.275,-36.2273 90.3522,-32.514 95.7936,-41.6048 100.275,-36.2273"/>
</g>
<!-- \\RtmClient\\WebSocket\\Exceptions\\ConnectionException -->
<g id="node13" class="node">
<title>\\RtmClient\\WebSocket\\Exceptions\\ConnectionException</title>
<polygon fill="none" stroke="#000000" points="332.8441,-420 191.0021,-420 191.0021,-384 332.8441,-384 332.8441,-420"/>
<text text-anchor="middle" x="261.9231" y="-398.7" font-family="Courier,monospace" font-size="11.00" fill="#000000">ConnectionException</text>
</g>
<!-- \\RtmClient\\WebSocket\\Exceptions\\ConnectionException&#45;&gt;\\Exception -->
<g id="edge7" class="edge">
<title>\\RtmClient\\WebSocket\\Exceptions\\ConnectionException&#45;&gt;\\Exception</title>
<path fill="none" stroke="#000000" d="M190.946,-390.065C183.0884,-386.3001 175.8369,-381.3913 170.0107,-375 70.2451,-265.5574 185.4536,-172.9788 106.0107,-48 103.9494,-44.7571 101.4022,-41.7492 98.5943,-38.9902"/>
<polygon fill="none" stroke="#000000" points="100.5908,-36.0934 90.7069,-32.2778 96.0541,-41.4243 100.5908,-36.0934"/>
</g>
<!-- \\RtmClient\\WebSocket\\Exceptions\\TimeoutException -->
<g id="node14" class="node">
<title>\\RtmClient\\WebSocket\\Exceptions\\TimeoutException</title>
<polygon fill="none" stroke="#000000" points="322.5409,-366 201.3053,-366 201.3053,-330 322.5409,-330 322.5409,-366"/>
<text text-anchor="middle" x="261.9231" y="-344.7" font-family="Courier,monospace" font-size="11.00" fill="#000000">TimeoutException</text>
</g>
<!-- \\RtmClient\\WebSocket\\Exceptions\\TimeoutException&#45;&gt;\\Exception -->
<g id="edge8" class="edge">
<title>\\RtmClient\\WebSocket\\Exceptions\\TimeoutException&#45;&gt;\\Exception</title>
<path fill="none" stroke="#000000" d="M200.9604,-339.8547C189.4132,-335.8046 178.3543,-329.8195 170.0107,-321 84.3656,-230.4695 174.7984,-151.9188 106.0107,-48 103.8274,-44.7016 101.1507,-41.6382 98.2205,-38.8287"/>
<polygon fill="none" stroke="#000000" points="100.4573,-36.1366 90.5513,-32.3788 95.9518,-41.4939 100.4573,-36.1366"/>
</g>
<!-- \\RtmClient\\WebSocket\\Client -->
<g id="node15" class="node">
<title>\\RtmClient\\WebSocket\\Client</title>
<polygon fill="none" stroke="#000000" points="289.5309,-258 234.3153,-258 234.3153,-222 289.5309,-222 289.5309,-258"/>
<text text-anchor="middle" x="261.9231" y="-236.7" font-family="Courier,monospace" font-size="11.00" fill="#000000">Client</text>
</g>
<!-- \\RtmClient\\WebSocket\\OpCode -->
<g id="node16" class="node">
<title>\\RtmClient\\WebSocket\\OpCode</title>
<polygon fill="none" stroke="#000000" points="289.5309,-204 234.3153,-204 234.3153,-168 289.5309,-168 289.5309,-204"/>
<text text-anchor="middle" x="261.9231" y="-182.7" font-family="Courier,monospace" font-size="11.00" fill="#000000">OpCode</text>
</g>
<!-- \\RtmClient\\WebSocket\\ReturnCode -->
<g id="node17" class="node">
<title>\\RtmClient\\WebSocket\\ReturnCode</title>
<polygon fill="none" stroke="#000000" points="302.9338,-150 220.9124,-150 220.9124,-114 302.9338,-114 302.9338,-150"/>
<text text-anchor="middle" x="261.9231" y="-128.7" font-family="Courier,monospace" font-size="11.00" fill="#000000">ReturnCode</text>
</g>
<!-- \\RtmClient\\Connection -->
<g id="node18" class="node">
<title>\\RtmClient\\Connection</title>
<polygon fill="none" stroke="#000000" points="302.9338,-518 220.9124,-518 220.9124,-482 302.9338,-482 302.9338,-518"/>
<text text-anchor="middle" x="261.9231" y="-496.7" font-family="Courier,monospace" font-size="11.00" fill="#000000">Connection</text>
</g>
<!-- \\RtmClient\\RtmClient -->
<g id="node20" class="node">
<title>\\RtmClient\\RtmClient</title>
<polygon fill="none" stroke="#000000" points="299.8339,-697 224.0123,-697 224.0123,-661 299.8339,-661 299.8339,-697"/>
<text text-anchor="middle" x="261.9231" y="-675.7" font-family="Courier,monospace" font-size="11.00" fill="#000000">RtmClient</text>
</g>
<!-- \\RtmClient\\RtmClient&#45;&gt;\\RtmClient\\Observable -->
<g id="edge4" class="edge">
<title>\\RtmClient\\RtmClient&#45;&gt;\\RtmClient\\Observable</title>
<path fill="none" stroke="#000000" d="M224.0408,-671.163C207.3316,-667.3914 187.547,-662.4938 170.0107,-657 152.1355,-651.4001 132.9481,-644.2562 115.9285,-637.5057"/>
<polygon fill="none" stroke="#000000" points="116.7684,-634.0713 106.1845,-633.5912 114.159,-640.5667 116.7684,-634.0713"/>
</g>
<!-- \\RtmClient\\RtmEvents -->
<g id="node21" class="node">
<title>\\RtmClient\\RtmEvents</title>
<polygon fill="none" stroke="#000000" points="299.8339,-96 224.0123,-96 224.0123,-60 299.8339,-60 299.8339,-96"/>
<text text-anchor="middle" x="261.9231" y="-74.7" font-family="Courier,monospace" font-size="11.00" fill="#000000">RtmEvents</text>
</g>
</g>
</svg>
